<svg xmlns="http://www.w3.org/2000/svg" viewBox="0 0 512 512"><path d="M94,365.57c.77,3.65,3.27,5.9,8,5.9,4.24,0,7-1.93,7-4.94,0-9.42-22.84-3.65-22.84-19.93,0-7.56,6.74-13.14,15.59-13.14s14.83,5,15.92,12.24l-8.92,1.8c-.77-3.78-3.08-6-7.32-6-3.78,0-6.16,1.92-6.16,4.87,0,8.65,22.85,2.88,22.85,19.86,0,7.63-7,13.33-16.37,13.33S86,374.48,85.08,367.3Z" style="fill:#1d1d1b"/><polygon points="141.99 341.92 128.13 341.92 128.13 334.1 164.71 334.1 164.71 341.92 150.84 341.92 150.84 378.96 141.99 378.96 141.99 341.92" style="fill:#1d1d1b"/><path d="M196.46,371.47c8.15,0,14.44-6.48,14.44-14.94s-6.29-15-14.44-15-14.5,6.53-14.5,15,6.29,14.94,14.5,14.94m0-38c13.28,0,23.55,10.06,23.55,23.07s-10.27,23.07-23.55,23.07-23.61-10.06-23.61-23.07,10.27-23.07,23.61-23.07" style="fill:#1d1d1b"/><polygon points="233.48 334.1 242.33 334.1 242.33 353.52 259.53 334.1 270.57 334.1 254.27 352.37 272.81 378.96 262.16 378.96 248.3 359.23 242.33 365.89 242.33 378.96 233.48 378.96 233.48 334.1" style="fill:#1d1d1b"/><path d="M303,371.4a5.5,5.5,0,0,0,5.84-5.64c0-3.2-2.31-5.57-5.84-5.57h-10.2V371.4Zm-1.86-18.52a5.6,5.6,0,0,0,5.91-5.64c0-3.2-2.44-5.57-5.91-5.57h-8.34v11.21ZM284.16,334.1h17.33c8.21,0,13.67,5.32,13.67,12.44a11.29,11.29,0,0,1-4.56,9.29,11.08,11.08,0,0,1,7.12,10.7c0,7.05-5.45,12.43-12.9,12.43H284.16Z" style="fill:#1d1d1b"/><path d="M353.2,371.47c8.15,0,14.44-6.48,14.44-14.94s-6.29-15-14.44-15-14.5,6.53-14.5,15,6.29,14.94,14.5,14.94m0-38c13.28,0,23.55,10.06,23.55,23.07S366.48,379.6,353.2,379.6s-23.62-10.06-23.62-23.07,10.27-23.07,23.62-23.07" style="fill:#1d1d1b"/><polygon points="400.35 356.66 384.31 334.1 395.03 334.1 405.68 349.42 416.46 334.1 426.92 334.1 410.88 356.4 426.92 378.96 416.2 378.96 405.49 363.58 394.77 378.96 384.31 378.96 400.35 356.66" style="fill:#1d1d1b"/><path d="M201.55,270.84l1.24-.54h0l-21.86-50.56,7,4a2.69,2.69,0,0,0,4-2.32V176.41L232,153.28l6.51,19.3-25.17,14.56L212,188V236.1a2.66,2.66,0,0,0,1.32,2.31L224.52,245l-21.73,25.33Zm89.76-81.12L256,210l-35.47-20.46,26.81-15.51,8.77-5ZM294,222.17l0,13.23-35.16,19.76V215l35.28-20.32L294,221.08Zm-75.64,12.59-.69-.41,0-39.86L253.12,215l0,40.36-19.89-11.75.12-.14Zm68.78-90-6.92,4a2.68,2.68,0,0,0,0,4.64l39.66,23.29-.19,46-20-4.15.09-28.8a2.67,2.67,0,0,0-1.32-2.32l-40.4-23.74-1.94-1.13-12.59,7.22-10.45-31,.16-1.34-.15,1.34ZM298,264.14a2.65,2.65,0,0,0-2.68,0L255.4,286.5l-39.14-23.19,13.2-15.38,24.79,14.64,1.42.85,42.49-23.85,1.48-.81,0-14.5,32.47,6.81L299.19,274.5l.1-8a2.65,2.65,0,0,0-1.32-2.34m41.92-36a2.66,2.66,0,0,0-2-1.68l-12.61-2.63.23-48.76.05-1.67-38.08-22.35,10.39-5.93a2.68,2.68,0,0,0-1-5l-67.79-7.65a2.69,2.69,0,0,0-2.85,3.52l4,11.75-42.7,24.62-1.23.7,0,43.16-10.33-6a2.68,2.68,0,0,0-3.81,3.38l27.18,63,1.78,4.26,11.37-13.27,41.39,24.54,1.43.85,38.22-21.48-.15,11.91a2.69,2.69,0,0,0,4.83,1.65l41.31-54.4a2.64,2.64,0,0,0,.37-2.56" style="fill:#1d1d1b"/></svg>