<svg xmlns="http://www.w3.org/2000/svg" viewBox="0 0 512 512"><rect x="-575.46" y="-32.78" width="1125.32" height="566.65" style="fill:#36b18e"/><path d="M150.34,368.65l2.41-1h0L110.34,269.5l13.6,7.83a5.2,5.2,0,0,0,7.81-4.5l0-87.41,77.74-44.89L222.09,178l-48.82,28.25-2.69,1.61v93.39a5.21,5.21,0,0,0,2.57,4.48l21.76,12.74-42.16,49.14Zm174.18-157.4L256,250.69,187.13,211l52-30.09,17-9.75Zm5.22,63-.07,25.68-68.21,38.33,0-78,68.46-39.44-.17,51.29ZM183,298.63l-1.33-.78,0-77.34,68.83,39.7.05,78.3-38.58-22.8.24-.27ZM316.42,124,303,131.67a5.2,5.2,0,0,0-.06,9l77,45.21-.37,89.21-38.73-8,.17-55.88a5.2,5.2,0,0,0-2.57-4.51L260,160.58l-3.75-2.18-24.44,14-20.27-60.15.3-2.6-.29,2.6Zm21,231.63a5.21,5.21,0,0,0-5.21-.06L254.84,399l-76-45,25.62-29.85,48.1,28.41,2.75,1.65L337.81,308l2.87-1.56,0-28.14,63,13.2-63.91,84.28.19-15.57a5.19,5.19,0,0,0-2.55-4.54m81.33-69.76a5.19,5.19,0,0,0-3.8-3.27l-24.47-5.1L391,182.9l.09-3.25L317.16,136.3l20.15-11.51a5.2,5.2,0,0,0-2-9.68L203.76,100.27a5.2,5.2,0,0,0-5.52,6.82l7.69,22.81L123.1,177.66,120.7,179l.06,83.73L100.71,251.2a5.21,5.21,0,0,0-7.39,6.56L146.07,380l3.44,8.26,22.07-25.73,80.32,47.61,2.75,1.64,74.17-41.68-.28,23.12a5.21,5.21,0,0,0,9.36,3.2l80.15-105.55a5.16,5.16,0,0,0,.73-5" style="fill:#fff"/></svg>