<svg xmlns="http://www.w3.org/2000/svg" viewBox="0 0 511.69 120.32"><path d="M161.61,73.05c.81,3.84,3.44,6.2,8.43,6.2,4.46,0,7.36-2,7.36-5.19,0-9.91-24-3.85-24-21,0-8,7.08-13.82,16.4-13.82s15.58,5.26,16.73,12.87L177.13,54c-.81-4-3.24-6.26-7.69-6.26-4,0-6.48,2-6.48,5.12,0,9.09,24,3,24,20.89,0,8-7.35,14-17.2,14s-16.54-5.39-17.55-12.93Z" style="fill:#fff"/><polygon points="212.07 48.18 197.5 48.18 197.5 39.96 235.96 39.96 235.96 48.18 221.39 48.18 221.39 87.13 212.07 87.13 212.07 48.18" style="fill:#fff"/><path d="M269.35,79.25c8.57,0,15.19-6.81,15.19-15.71s-6.62-15.76-15.19-15.76-15.24,6.87-15.24,15.76,6.61,15.71,15.24,15.71m0-40c14,0,24.77,10.58,24.77,24.26S283.32,87.8,269.35,87.8s-24.83-10.58-24.83-24.26,10.8-24.26,24.83-24.26" style="fill:#fff"/><polygon points="308.28 39.96 317.59 39.96 317.59 60.38 335.67 39.96 347.28 39.96 330.14 59.16 349.64 87.13 338.44 87.13 323.87 66.37 317.59 73.38 317.59 87.13 308.28 87.13 308.28 39.96" style="fill:#fff"/><path d="M381.34,79.18a5.79,5.79,0,0,0,6.14-5.93c0-3.37-2.43-5.86-6.14-5.86H370.61V79.18ZM379.39,59.7a5.88,5.88,0,0,0,6.2-5.93c0-3.37-2.56-5.86-6.2-5.86h-8.78V59.7ZM361.57,40h18.22c8.64,0,14.37,5.59,14.37,13.07a11.83,11.83,0,0,1-4.79,9.77,11.65,11.65,0,0,1,7.49,11.26c0,7.41-5.73,13.07-13.56,13.07H361.57Z" style="fill:#fff"/><path d="M434.17,79.25c8.57,0,15.18-6.81,15.18-15.71s-6.61-15.76-15.18-15.76-15.25,6.87-15.25,15.76,6.61,15.71,15.25,15.71m0-40c14,0,24.76,10.58,24.76,24.26S448.13,87.8,434.17,87.8s-24.83-10.58-24.83-24.26,10.79-24.26,24.83-24.26" style="fill:#fff"/><polygon points="483.75 63.68 466.88 39.96 478.15 39.96 489.35 56.06 500.69 39.96 511.69 39.96 494.82 63.41 511.69 87.13 500.42 87.13 489.15 70.96 477.88 87.13 466.88 87.13 483.75 63.68" style="fill:#fff"/><path d="M22.19,103.67l.93-.4h0L6.74,65.37l5.25,3a2,2,0,0,0,2,0,2,2,0,0,0,1-1.74V32.9L45,15.56,49.9,30,31.05,40.94l-1,.63V77.64a2,2,0,0,0,1,1.73l8.41,4.92-16.29,19ZM89.46,42.88,63,58.11,36.4,42.77,56.5,31.15l6.56-3.77Zm2,24.31,0,9.92L65.11,91.92V61.8L91.54,46.57l-.06,19.81ZM34.79,76.63l-.51-.31,0-29.87L60.84,61.79l0,30.24L46,83.22l.09-.1ZM86.34,9.18l-5.19,3a2,2,0,0,0-1,1.73,2,2,0,0,0,1,1.75l29.72,17.46-.14,34.45-15-3.11.07-21.58a2,2,0,0,0-1-1.74L64.55,23.31l-1.45-.84-9.44,5.4L45.83,4.64l.12-1-.11,1Zm8.12,89.47a2,2,0,0,0-2,0L62.55,115.4,33.22,98,43.11,86.5l18.58,11,1.06.64L94.6,80.23l1.1-.6,0-10.87,24.33,5.1L95.37,106.41l.07-6a2,2,0,0,0-1-1.75M125.87,71.7a2,2,0,0,0-1.47-1.26l-9.45-2,.17-36.54,0-1.26L86.62,13.93l7.79-4.45a2,2,0,0,0-.78-3.74L42.82,0A2,2,0,0,0,41,.75a2,2,0,0,0-.34,1.9l3,8.81-32,18.44-.92.53,0,32.34L3,58.31a2,2,0,0,0-2.34.24,2,2,0,0,0-.51,2.29l20.37,47.21,1.33,3.19,8.53-9.94,31,18.38,1.06.64,28.65-16.1L91,113.15a2,2,0,0,0,3.61,1.24l31-40.77a2,2,0,0,0,.28-1.92" style="fill:#fff"/></svg>